<svg width="180" height="50" viewBox="0 0 180 50" fill="none" xmlns="http://www.w3.org/2000/svg">
<rect width="180" height="50" rx="4" fill="#24B47E"/>
<path d="M0 4C0 1.79086 1.79086 0 4 0H109V50H4C1.79086 50 0 48.2091 0 46V4Z" fill="#319E75"/>
<path d="M55.4163 19.8182H47.3026V30H49.1322V21.3494H53.5867V30H55.4163V19.8182ZM61.8738 30.1491C64.1111 30.1491 65.5329 28.5732 65.5329 26.2116C65.5329 23.8452 64.1111 22.2642 61.8738 22.2642C59.6366 22.2642 58.2148 23.8452 58.2148 26.2116C58.2148 28.5732 59.6366 30.1491 61.8738 30.1491ZM61.8838 28.7074C60.6459 28.7074 60.0393 27.6037 60.0393 26.2067C60.0393 24.8097 60.6459 23.6911 61.8838 23.6911C63.1018 23.6911 63.7084 24.8097 63.7084 26.2067C63.7084 27.6037 63.1018 28.7074 61.8838 28.7074ZM67.3843 32.2173H69.1542V30H74.1507V32.2173H75.8907V28.5185H74.7075V22.3636H69.189L68.9703 25.0384C68.8261 26.7486 68.6372 28.0163 67.9909 28.5185H67.3843V32.2173ZM69.8403 28.5185C70.3225 27.8075 70.5015 26.6541 70.6308 25.0384L70.7501 23.8153H72.9873V28.5185H69.8403ZM78.2343 32.8636H80.034V28.7969H80.1086C80.392 29.3537 80.9836 30.1342 82.2961 30.1342C84.0958 30.1342 85.4431 28.7074 85.4431 26.1918C85.4431 23.6463 84.056 22.2642 82.2911 22.2642C80.9438 22.2642 80.382 23.0746 80.1086 23.6264H80.0042V22.3636H78.2343V32.8636ZM79.9992 26.1818C79.9992 24.7003 80.6356 23.7408 81.7939 23.7408C82.9921 23.7408 83.6086 24.7599 83.6086 26.1818C83.6086 27.6136 82.9822 28.6577 81.7939 28.6577C80.6455 28.6577 79.9992 27.6634 79.9992 26.1818ZM91.3153 30.1491C93.5525 30.1491 94.9743 28.5732 94.9743 26.2116C94.9743 23.8452 93.5525 22.2642 91.3153 22.2642C89.078 22.2642 87.6562 23.8452 87.6562 26.2116C87.6562 28.5732 89.078 30.1491 91.3153 30.1491ZM91.3252 28.7074C90.0873 28.7074 89.4807 27.6037 89.4807 26.2067C89.4807 24.8097 90.0873 23.6911 91.3252 23.6911C92.5432 23.6911 93.1498 24.8097 93.1498 26.2067C93.1498 27.6037 92.5432 28.7074 91.3252 28.7074ZM103.622 19.5398C103.254 19.8182 102.672 19.8132 101.882 19.8132C101.658 19.8132 101.424 19.8132 101.171 19.8182C98.5409 19.853 97.1887 21.603 97.1887 25.1925V25.8786C97.1887 28.6726 98.6006 30.1491 100.823 30.1491C103.045 30.1491 104.447 28.6676 104.447 26.3111C104.447 24.0241 103.115 22.7067 101.221 22.7067C100.057 22.7067 99.1773 23.2088 98.7 24.1435H98.6155C98.7945 22.2393 99.5104 21.3793 101.221 21.3395C102.737 21.3047 103.587 21.2798 104.248 20.7031L103.622 19.5398ZM100.833 28.7074C99.7043 28.7074 99.0132 27.8026 99.0132 26.3608C99.0281 24.9389 99.7093 24.1236 100.823 24.1236C101.937 24.1236 102.623 24.9389 102.623 26.3608C102.623 27.8075 101.941 28.7074 100.833 28.7074ZM108.714 22.3636H106.978V30H108.714V26.9126H111.672V30H113.402V22.3636H111.672V25.4361H108.714V22.3636ZM119.603 30.1491C121.383 30.1491 122.606 29.2791 122.924 27.9517L121.244 27.7628C121 28.4091 120.404 28.7472 119.628 28.7472C118.465 28.7472 117.694 27.9815 117.679 26.674H122.999V26.1222C122.999 23.4425 121.388 22.2642 119.509 22.2642C117.321 22.2642 115.894 23.87 115.894 26.2266C115.894 28.6229 117.301 30.1491 119.603 30.1491ZM117.684 25.4609C117.739 24.4865 118.46 23.6662 119.534 23.6662C120.568 23.6662 121.264 24.4219 121.274 25.4609H117.684ZM128.902 30.1491C130.682 30.1491 131.905 29.2791 132.223 27.9517L130.543 27.7628C130.299 28.4091 129.703 28.7472 128.927 28.7472C127.764 28.7472 126.993 27.9815 126.978 26.674H132.298V26.1222C132.298 23.4425 130.687 22.2642 128.808 22.2642C126.62 22.2642 125.193 23.87 125.193 26.2266C125.193 28.6229 126.6 30.1491 128.902 30.1491ZM126.983 25.4609C127.038 24.4865 127.759 23.6662 128.832 23.6662C129.867 23.6662 130.563 24.4219 130.573 25.4609H126.983Z" fill="white"/>
</svg>
